<svg xmlns="http://www.w3.org/2000/svg" viewBox="0 0 240 240" role="img" aria-label="Student character">
  <defs>
    <linearGradient id="bgS" x1="0%" y1="0%" x2="100%" y2="100%">
      <stop offset="0%" stop-color="#fef3c7"/>
      <stop offset="100%" stop-color="#fde68a"/>
    </linearGradient>
  </defs>
  <circle cx="120" cy="120" r="108" fill="url(#bgS)"/>
  <ellipse cx="120" cy="192" rx="56" ry="25" fill="#d97706" opacity="0.23"/>
  <path d="M80 167c9-23 23-34 40-34s31 11 40 34v18H80v-18z" fill="#b45309"/>
  <circle cx="120" cy="101" r="35" fill="#f8d2b1"/>
  <path d="M84 99c2-24 17-38 36-38 22 0 37 15 38 38-8-6-16-8-24-8h-29c-8 0-15 2-21 8z" fill="#78350f"/>
  <circle cx="108" cy="107" r="3" fill="#111827"/>
  <circle cx="132" cy="107" r="3" fill="#111827"/>
  <path d="M110 121c3 4 16 4 19 0" fill="none" stroke="#92400e" stroke-width="2" stroke-linecap="round"/>
  <rect x="74" y="148" width="20" height="26" rx="4" fill="#1d4ed8"/>
  <line x1="79" y1="155" x2="89" y2="155" stroke="#dbeafe" stroke-width="2"/>
  <line x1="79" y1="160" x2="89" y2="160" stroke="#dbeafe" stroke-width="2"/>
  <line x1="79" y1="165" x2="89" y2="165" stroke="#dbeafe" stroke-width="2"/>
</svg>
