<svg xmlns="http://www.w3.org/2000/svg" viewBox="0 0 240 240" role="img" aria-label="Analyst character">
  <defs>
    <linearGradient id="bgA" x1="0%" y1="0%" x2="100%" y2="100%">
      <stop offset="0%" stop-color="#dbeafe"/>
      <stop offset="100%" stop-color="#bfdbfe"/>
    </linearGradient>
  </defs>
  <circle cx="120" cy="120" r="108" fill="url(#bgA)"/>
  <ellipse cx="120" cy="192" rx="56" ry="26" fill="#94a3b8" opacity="0.35"/>
  <path d="M82 166c8-22 24-34 38-34s30 12 38 34v18H82v-18z" fill="#1e3a8a"/>
  <circle cx="120" cy="102" r="34" fill="#f8d2b3"/>
  <path d="M87 102c0-25 17-42 39-42s39 17 39 42c-7-5-15-8-24-8h-30c-9 0-17 3-24 8z" fill="#1f2937"/>
  <rect x="96" y="98" width="18" height="13" rx="3" fill="none" stroke="#0f172a" stroke-width="3"/>
  <rect x="126" y="98" width="18" height="13" rx="3" fill="none" stroke="#0f172a" stroke-width="3"/>
  <line x1="114" y1="104" x2="126" y2="104" stroke="#0f172a" stroke-width="3"/>
  <circle cx="108" cy="105" r="2" fill="#0f172a"/>
  <circle cx="132" cy="105" r="2" fill="#0f172a"/>
  <path d="M112 118c3 4 13 4 16 0" fill="none" stroke="#b45309" stroke-width="2" stroke-linecap="round"/>
</svg>
